<?xml version="1.0" encoding="UTF-8" standalone="no"?>
<!DOCTYPE svg PUBLIC "-//W3C//DTD SVG 20010904//EN"
              "http://www.w3.org/TR/2001/REC-SVG-20010904/DTD/svg10.dtd">

<svg xmlns="http://www.w3.org/2000/svg"
     width="5.68889in" height="5.68889in"
     viewBox="0 0 512 512">
  <path id="Imported Path #4"
        fill="000000" stroke="black" stroke-width="1"
        d="M 64.00,0.00
           C 64.00,0.00 96.00,0.00 96.00,0.00
             96.00,0.00 96.00,512.00 96.00,512.00
             96.00,512.00 64.00,512.00 64.00,512.00
             46.34,512.00 32.00,497.66 32.00,480.00
             32.00,480.00 32.00,32.00 32.00,32.00
             32.00,14.34 46.34,0.00 64.00,0.00 Z
           M 480.00,32.00
           C 480.00,32.00 480.00,480.00 480.00,480.00
             480.00,497.66 465.66,512.00 448.00,512.00
             448.00,512.00 128.00,512.00 128.00,512.00
             128.00,512.00 128.00,0.00 128.00,0.00
             128.00,0.00 448.00,0.00 448.00,0.00
             465.66,0.00 480.00,14.34 480.00,32.00 Z
           M 253.79,171.74
           C 253.79,198.50 275.49,220.19 302.24,220.19
             328.93,220.19 350.66,198.50 350.66,171.74
             350.66,145.02 328.99,123.33 302.24,123.33
             275.49,123.33 253.79,144.99 253.79,171.74 Z
           M 382.50,345.82
           C 382.50,287.20 346.98,239.58 303.26,239.58
             259.49,239.58 224.00,287.17 224.00,345.82
             224.00,404.51 382.46,404.51 382.50,345.82 Z" />
</svg>
