<?xml version="1.0" encoding="UTF-8" standalone="no"?>
<svg
   xmlns:dc="http://purl.org/dc/elements/1.1/"
   xmlns:cc="http://creativecommons.org/ns#"
   xmlns:rdf="http://www.w3.org/1999/02/22-rdf-syntax-ns#"
   xmlns:svg="http://www.w3.org/2000/svg"
   xmlns="http://www.w3.org/2000/svg"
   xmlns:sodipodi="http://sodipodi.sourceforge.net/DTD/sodipodi-0.dtd"
   xmlns:inkscape="http://www.inkscape.org/namespaces/inkscape"
   width="128"
   height="128"
   viewBox="0 0 128 128"
   version="1.1"
   id="svg3776"
   sodipodi:docname="contact.svg"
   inkscape:version="0.92.1 r15371">
  <metadata
     id="metadata3782">
    <rdf:RDF>
      <cc:Work
         rdf:about="">
        <dc:format>image/svg+xml</dc:format>
        <dc:type
           rdf:resource="http://purl.org/dc/dcmitype/StillImage" />
        <dc:title></dc:title>
      </cc:Work>
    </rdf:RDF>
  </metadata>
  <defs
     id="defs3780" />
  <sodipodi:namedview
     pagecolor="#ffffff"
     bordercolor="#666666"
     borderopacity="1"
     objecttolerance="10"
     gridtolerance="10"
     guidetolerance="10"
     inkscape:pageopacity="0"
     inkscape:pageshadow="2"
     inkscape:window-width="2560"
     inkscape:window-height="1016"
     id="namedview3778"
     showgrid="false"
     inkscape:zoom="3.4570306"
     inkscape:cx="95.214734"
     inkscape:cy="65.498999"
     inkscape:window-x="0"
     inkscape:window-y="27"
     inkscape:window-maximized="1"
     inkscape:current-layer="svg3776"
     units="px" />
  <path
     id="Imported Path #4"
     fill="000000"
     d="m 16.093571,0.124754 c 0,0 7.984405,0 7.984405,0 0,0 0,127.750496 0,127.750496 0,0 -7.984405,0 -7.984405,0 -4.406394,0 -7.9844045,-3.57803 -7.9844045,-7.98442 0,0 0,-111.781671 0,-111.781671 0,-4.406394 3.5780105,-7.984405 7.9844045,-7.984405 z M 119.89083,8.109159 c 0,0 0,111.781671 0,111.781671 0,4.40639 -3.57801,7.98442 -7.98441,7.98442 0,0 -79.84404,0 -79.84404,0 0,0 0,-127.750496 0,-127.750496 0,0 79.84404,0 79.84404,0 4.4064,0 7.98441,3.578011 7.98441,7.984405 z M 63.448575,42.976057 c 0,6.676959 5.414424,12.088889 12.088889,12.088889 6.659492,0 12.081403,-5.41193 12.081403,-12.088889 0,-6.666977 -5.406939,-12.078906 -12.081403,-12.078906 -6.674465,0 -12.088889,5.404443 -12.088889,12.078906 z m 32.114774,43.435159 c 0,-14.62643 -8.862689,-26.50822 -19.771382,-26.50822 -10.921168,0 -19.776372,11.87431 -19.776372,26.50822 0,14.643904 39.537773,14.643904 39.547754,0 z"
     inkscape:connector-curvature="0"
     style="stroke:#000000;stroke-width:0.24951267" />
</svg>
