<?xml version="1.0" encoding="UTF-8" standalone="no"?>
<!DOCTYPE svg PUBLIC "-//W3C//DTD SVG 20010904//EN"
              "http://www.w3.org/TR/2001/REC-SVG-20010904/DTD/svg10.dtd">

<svg xmlns="http://www.w3.org/2000/svg"
     width="7.11273in" height="7.11273in"
     viewBox="0 0 512 512">
  <path id="Selection"
        fill="ffffff" stroke="black" stroke-width="1"
        d="M 85.00,0.00
           C 85.00,0.00 159.00,0.00 159.00,0.00
             159.00,0.00 390.00,0.00 390.00,0.00
             390.00,0.00 457.00,0.00 457.00,0.00
             476.60,0.03 489.97,14.71 490.00,34.00
             490.00,34.00 490.00,402.00 490.00,402.00
             490.00,402.00 490.00,478.00 490.00,478.00
             489.97,497.47 476.77,511.97 457.00,512.00
             457.00,512.00 123.00,512.00 123.00,512.00
             123.00,512.00 55.00,512.00 55.00,512.00
             34.07,511.97 22.03,495.98 22.00,476.00
             22.00,476.00 22.00,116.00 22.00,116.00
             22.00,116.00 22.00,36.00 22.00,36.00
             22.03,18.68 29.99,5.76 47.00,0.60
             47.00,0.60 85.00,0.00 85.00,0.00 Z
           M 289.00,78.00
           C 289.00,78.00 289.00,110.00 289.00,110.00
             289.00,110.00 411.00,110.00 411.00,110.00
             411.00,110.00 411.00,78.00 411.00,78.00
             411.00,78.00 289.00,78.00 289.00,78.00 Z
           M 145.56,113.00
           C 137.44,133.89 151.14,160.68 175.00,161.00
             183.13,161.10 187.56,161.61 195.00,157.49
             199.67,154.90 202.87,152.25 206.10,148.00
             225.45,122.47 205.29,87.80 173.00,91.32
             160.73,94.00 150.28,100.85 145.56,113.00 Z
           M 289.00,143.00
           C 289.00,143.00 289.00,175.00 289.00,175.00
             289.00,175.00 411.00,175.00 411.00,175.00
             411.00,175.00 411.00,143.00 411.00,143.00
             411.00,143.00 289.00,143.00 289.00,143.00 Z
           M 244.00,212.00
           C 244.00,193.32 243.09,178.22 223.00,170.03
             219.18,168.48 215.08,168.05 211.00,168.00
             211.00,168.00 147.00,168.00 147.00,168.00
             127.32,168.09 113.10,180.94 113.00,201.00
             113.00,201.00 113.00,233.00 113.00,233.00
             113.00,233.00 244.00,233.00 244.00,233.00
             244.00,233.00 244.00,212.00 244.00,212.00 Z
           M 289.00,208.00
           C 289.00,208.00 289.00,240.00 289.00,240.00
             289.00,240.00 411.00,240.00 411.00,240.00
             411.00,240.00 411.00,208.00 411.00,208.00
             411.00,208.00 289.00,208.00 289.00,208.00 Z
           M 101.00,272.00
           C 101.00,272.00 101.00,304.00 101.00,304.00
             101.00,304.00 411.00,304.00 411.00,304.00
             411.00,304.00 411.00,272.00 411.00,272.00
             411.00,272.00 101.00,272.00 101.00,272.00 Z
           M 101.00,336.00
           C 101.00,336.00 101.00,368.00 101.00,368.00
             101.00,368.00 411.00,368.00 411.00,368.00
             411.00,368.00 411.00,336.00 411.00,336.00
             411.00,336.00 101.00,336.00 101.00,336.00 Z
           M 101.00,401.00
           C 101.00,401.00 101.00,433.00 101.00,433.00
             101.00,433.00 411.00,433.00 411.00,433.00
             411.00,433.00 411.00,401.00 411.00,401.00
             411.00,401.00 101.00,401.00 101.00,401.00 Z" />
</svg>
